<?xml version="1.0" encoding="UTF-8"?>
<svg version="1.0" viewBox="0 0 32 32" xmlns="http://www.w3.org/2000/svg">
<path d="m16 0c-0.47206-0.0011936-0.99078 0.21908-1.3243 0.50195-4.6955 3.9989-9.4424 7.9815-14.113 11.984-0.34469 0.32338-0.5625 0.77854-0.5625 1.291v16.447c0 0.985 0.79243 1.7754 1.7773 1.7754h28.445c0.985 0 1.7773-0.79039 1.7773-1.7754v-16.447c0-0.51897-0.22375-0.98009-0.57617-1.3047-4.6705-3.9832-9.3906-7.9761-14.084-11.957-0.41036-0.34807-0.8613-0.51442-1.3398-0.51562zm4.7e-5 2.7317 13.945 11.814v0.73184l-7.2793 7.3887 5.5 5.6113-1.2207 1.2227-5.6113-5.6113-10.666 2e-3 -5.6113 5.666-1.2227-1.2793 5.5547-5.6094-7.332-7.3887v-0.73539z"/>
<path d="m14.301 6.1211v9.3516a5.1001 5.1001 0 0 0-3.4004 4.8086 5.1001 5.1001 0 0 0 0.35156 1.8281h2.584a2.8334 2.8334 0 0 1-0.66992-1.8281 2.8334 2.8334 0 0 1 2.834-2.834 2.8334 2.8334 0 0 1 2.834 2.834 2.8334 2.8334 0 0 1-0.66992 1.8281h2.5957a5.1001 5.1001 0 0 0 0.33984-1.8281 5.1001 5.1001 0 0 0-4.5332-5.0684v-3.416h1.6875v-1.7012h-1.6875v-1.1387h2.834v-1.7012h-2.834v-1.1348h-2.2656z" stroke-width="2.1418"/>
</svg>
