<?xml version="1.0" encoding="UTF-8"?>
<svg width="64" height="64" version="1.1" viewBox="0 0 16.933 16.933" xmlns="http://www.w3.org/2000/svg">
<path transform="scale(.26458)" d="m3 13.826v36.348h58v-36.348h-58zm1.9316 1.9043h54.051l-15.641 11.93h3.293l12.461-9.502v27.678l-10.723-8.1777v1.6504h-1.1387l11.744 8.9609h-54.043l11.635-8.877a10.45 10.483 0 0 1-1.2598-1.5586l-10.398 7.9297v-27.533l10.4 7.9336a10.45 10.483 0 0 1 1.2559-1.5547l-11.637-8.8789zm17.275 13.18a3.5668 3.578 0 0 0-1.3848 1.457l2.1387 1.6309-2.1406 1.6328a3.5668 3.578 0 0 0 1.3867 1.459l2.4043-1.834 1.791 1.3652a3.5668 3.578 0 0 0 1.0273-1.7246l-5.2227-3.9863zm12.379 5.4297-0.54102 0.41211a10.45 10.483 0 0 1-2.1465 4.0645l0.054687 0.041016 5.5898-4.2637v-0.25391h-2.957z" color="#000000" fill="#fff" stroke-width="3.7795" style="-inkscape-stroke:none;paint-order:markers stroke fill"/>
<path d="m6.3516 6.0854a2.3812 2.3812 0 0 0-2.3813 2.3813 2.3812 2.3812 0 0 0 2.3813 2.3812 2.3812 2.3812 0 0 0 2.3663-2.1167h1.5953v0.78807h0.79375v-0.78807h0.53227v1.3229h0.79375v-1.3229h0.5302v-1.0583h-4.3667a2.3812 2.3812 0 0 0-2.2448-1.5875zm0 1.0583a1.3229 1.3229 0 0 1 1.3229 1.3229 1.3229 1.3229 0 0 1-1.3229 1.3229 1.3229 1.3229 0 0 1-1.3229-1.3229 1.3229 1.3229 0 0 1 1.3229-1.3229z" fill="#fff"/>
</svg>
